<svg width="17" height="18" viewBox="0 0 17 18" fill="none" xmlns="http://www.w3.org/2000/svg">
<g id="bi:telephone-fill" clip-path="url(#clip0_54_18)">
<path id="Vector" fill-rule="evenodd" clip-rule="evenodd" d="M2.12067 0.574674C2.31751 0.378124 2.55388 0.225652 2.81411 0.127363C3.07434 0.0290734 3.35249 -0.0127889 3.63012 0.00454979C3.90776 0.0218885 4.17853 0.0980324 4.42451 0.227936C4.67049 0.357839 4.88605 0.538535 5.05692 0.758049L7.07629 3.3523C7.44642 3.82817 7.57692 4.44805 7.43067 5.03305L6.81529 7.4968C6.7837 7.62442 6.78553 7.75803 6.8206 7.88473C6.85568 8.01144 6.92282 8.12697 7.01554 8.22017L9.77967 10.9843C9.87298 11.0772 9.9887 11.1445 10.1156 11.1795C10.2425 11.2146 10.3764 11.2163 10.5042 11.1845L12.9668 10.5692C13.2555 10.4974 13.5567 10.492 13.8479 10.5534C14.139 10.6148 14.4124 10.7413 14.6475 10.9235L17.2418 12.9418C18.1744 13.6674 18.2599 15.0455 17.4252 15.8792L16.2619 17.0424C15.4294 17.8749 14.1852 18.2405 13.0253 17.8322C10.056 16.7888 7.3604 15.0891 5.13904 12.8597C2.90971 10.6386 1.21004 7.94339 0.166542 4.97455C-0.240708 3.8158 0.124917 2.57042 0.957417 1.73792L2.12067 0.574674Z" fill="#FFFCFB"/>
</g>
<defs>
<clipPath id="clip0_54_18">
<rect width="17" height="18" fill="white"/>
</clipPath>
</defs>
</svg>
