<svg width="40" height="36" viewBox="0 0 40 36" fill="none" xmlns="http://www.w3.org/2000/svg">
<g id="fa7-solid:helmet-safety">
<path id="Vector" d="M24.4444 18.5625V4.5C24.4444 3.25547 23.4514 2.25 22.2222 2.25H17.7778C16.5486 2.25 15.5556 3.25547 15.5556 4.5V18.5625C15.5556 19.4977 14.8125 20.25 13.8889 20.25C12.9653 20.25 12.2222 19.4977 12.2222 18.5625V5.49141C6.25 7.72031 2.22222 13.4859 2.22222 20.25V24.75H37.7778V20.25C37.7083 13.5563 33.7222 7.75547 27.7778 5.49844V18.5625C27.7778 19.4977 27.0347 20.25 26.1111 20.25C25.1875 20.25 24.4444 19.4977 24.4444 18.5625ZM2.77778 28.125C1.24306 28.125 0 29.3836 0 30.9375C0 32.4914 1.24306 33.75 2.77778 33.75H37.2222C38.7569 33.75 40 32.4914 40 30.9375C40 29.3836 38.7569 28.125 37.2222 28.125H2.77778Z" fill="#003858"/>
</g>
</svg>
