<svg width="36" height="36" viewBox="0 0 36 36" fill="none" xmlns="http://www.w3.org/2000/svg">
<g id="game-icons:achievement">
<path id="Vector" d="M21.5139 21.0104L23.1102 21.1779V34.1719L18.7008 29.4634V21.9726L19.9815 22.598L21.5139 21.0104ZM14.4861 21.0104L12.8889 21.1779V34.1719L17.2983 29.4634V21.9726L16.0177 22.598L14.4861 21.0104ZM26.5785 12.8696L27.0951 14.6678L25.5443 15.7133L25.4145 17.5816L23.5997 18.0333L22.8401 19.7429L20.9796 19.5464L19.6806 20.8884L18 20.0674L16.3194 20.8884L15.0204 19.542L13.1599 19.7385L12.4003 18.029L10.5855 17.5816L10.4557 15.7159L8.90051 14.6668L9.41716 12.8687L8.32071 11.3539L9.42068 9.8408L8.90051 8.04621L10.4522 7.00066L10.582 5.13492L12.4003 4.68759L13.1599 2.97809L15.0204 3.17454L16.3194 1.82812L18 2.64916L19.6806 1.82812L20.9796 3.17454L22.8401 2.97809L23.5997 4.68759L25.4145 5.13935L25.5443 7.00502L27.0951 8.05057L26.5785 9.84874L27.6793 11.3539L26.5785 12.8696ZM23.1181 11.3539C23.1181 10.3493 22.8202 9.36722 22.2621 8.53189C21.7039 7.69657 20.9106 7.04552 19.9824 6.66106C19.0543 6.2766 18.033 6.17601 17.0476 6.37201C16.0623 6.568 15.1572 7.05178 14.4468 7.76216C13.7365 8.47255 13.2527 9.37763 13.0567 10.363C12.8607 11.3483 12.9613 12.3696 13.3457 13.2978C13.7302 14.2259 14.3813 15.0192 15.2166 15.5774C16.0519 16.1355 17.034 16.4334 18.0386 16.4334C19.3851 16.4313 20.6759 15.8955 21.628 14.9434C22.5802 13.9912 23.116 12.7004 23.1181 11.3539ZM18.0386 7.67777C17.3115 7.67777 16.6008 7.89337 15.9963 8.2973C15.3918 8.70123 14.9206 9.27535 14.6424 9.94706C14.3641 10.6188 14.2913 11.3579 14.4332 12.071C14.575 12.7841 14.9251 13.4391 15.4392 13.9532C15.9533 14.4673 16.6083 14.8174 17.3214 14.9593C18.0345 15.1011 18.7736 15.0283 19.4453 14.7501C20.117 14.4719 20.6912 14.0007 21.0951 13.3962C21.4991 12.7917 21.7147 12.081 21.7147 11.3539C21.7119 10.3801 21.3236 9.44692 20.6347 8.75854C19.9459 8.07016 19.0125 7.68254 18.0386 7.68045V7.67777Z" fill="#003858"/>
</g>
</svg>
