<svg width="36" height="36" viewBox="0 0 36 36" fill="none" xmlns="http://www.w3.org/2000/svg">
<g id="material-symbols:handshake">
<path id="Vector" d="M18.15 31.5C17.725 31.5 17.369 31.356 17.082 31.068C16.795 30.78 16.651 30.424 16.65 30C16.65 29.825 16.6875 29.6435 16.7625 29.4555C16.8375 29.2675 16.95 29.099 17.1 28.95L24.0375 22.0125L22.95 20.925L16.05 27.8625C15.9 28.0125 15.7375 28.125 15.5625 28.2C15.3875 28.275 15.2 28.3125 15 28.3125C14.575 28.3125 14.219 28.169 13.932 27.882C13.645 27.595 13.501 27.2385 13.5 26.8125C13.5 26.5625 13.5375 26.356 13.6125 26.193C13.6875 26.03 13.7875 25.8865 13.9125 25.7625L20.85 18.825L19.8 17.775L12.8625 24.675C12.7125 24.825 12.55 24.9375 12.375 25.0125C12.2 25.0875 12 25.125 11.775 25.125C11.375 25.125 11.025 24.975 10.725 24.675C10.425 24.375 10.275 24.025 10.275 23.625C10.275 23.425 10.3125 23.2375 10.3875 23.0625C10.4625 22.8875 10.575 22.725 10.725 22.575L17.6625 15.6375L16.575 14.5875L9.675 21.525C9.55 21.65 9.4 21.75 9.225 21.825C9.05 21.9 8.8375 21.9375 8.5875 21.9375C8.1625 21.9375 7.806 21.7935 7.518 21.5055C7.23 21.2175 7.0865 20.8615 7.0875 20.4375C7.0875 20.2375 7.125 20.05 7.2 19.875C7.275 19.7 7.3875 19.5375 7.5375 19.3875L15.9 11.025L21.525 16.6875C21.8 16.9625 22.125 17.1815 22.5 17.3445C22.875 17.5075 23.25 17.5885 23.625 17.5875C24.425 17.5875 25.125 17.3065 25.725 16.7445C26.325 16.1825 26.625 15.4635 26.625 14.5875C26.625 14.2375 26.5625 13.875 26.4375 13.5C26.3125 13.125 26.0875 12.775 25.7625 12.45L19.05 5.73751C19.475 5.33751 19.95 5.03151 20.475 4.81951C21 4.60751 21.525 4.50101 22.05 4.50001C22.7 4.50001 23.3 4.60651 23.85 4.81951C24.4 5.03251 24.9 5.36351 25.35 5.81251L31.6875 12.1875C32.1375 12.6375 32.469 13.1375 32.682 13.6875C32.895 14.2375 33.001 14.875 33 15.6C33 16.1 32.8875 16.6065 32.6625 17.1195C32.4375 17.6325 32.1125 18.101 31.6875 18.525L19.2 31.05C19 31.25 18.825 31.375 18.675 31.425C18.525 31.475 18.35 31.5 18.15 31.5ZM5.2875 19.5L4.3125 18.525C3.8875 18.125 3.5625 17.65 3.3375 17.1C3.1125 16.55 3 15.975 3 15.375C3 14.725 3.125 14.125 3.375 13.575C3.625 13.025 3.9375 12.5625 4.3125 12.1875L10.65 5.81251C11.05 5.41251 11.525 5.09351 12.075 4.85551C12.625 4.61751 13.1625 4.49901 13.6875 4.50001C14.3625 4.50001 14.9625 4.59401 15.4875 4.78201C16.0125 4.97001 16.525 5.31351 17.025 5.81251L24.7125 13.5C24.8625 13.65 24.975 13.8125 25.05 13.9875C25.125 14.1625 25.1625 14.35 25.1625 14.55C25.1625 14.95 25.0125 15.3 24.7125 15.6C24.4125 15.9 24.0625 16.05 23.6625 16.05C23.4375 16.05 23.25 16.019 23.1 15.957C22.95 15.895 22.7875 15.776 22.6125 15.6L15.8625 8.92501L5.2875 19.5Z" fill="#003858"/>
</g>
</svg>
